<svg width="158" height="34" viewBox="0 0 158 34" fill="none" xmlns="http://www.w3.org/2000/svg">
<path d="M59.7668 25.5243C55.5286 25.5243 53.5765 23.6288 53.5765 20.9429H71.4046V18.6293C71.4046 11.5452 66.2854 7.23867 58.9779 7.23867C51.6705 7.23867 46.5973 11.6827 46.5973 19.0931C46.5973 25.7133 50.7376 31.5489 59.7726 31.5489C67.9208 31.5489 71.7847 26.223 72.2511 22.8442H64.8055C64.3275 24.5966 62.3696 25.5243 59.7668 25.5243ZM58.9722 13.2575C63.1125 13.2575 64.4196 15.0157 64.4196 16.7738H53.5765C53.5765 15.0157 54.8318 13.2575 58.9722 13.2575ZM30.2894 1.15681H37.735V8.76773H45.4629V15.2505H37.7408V24.4191H45.6011V31.0851H34.2973H34.2512C33.4335 31.1137 32.7425 30.982 32.1666 30.7071C30.894 30.1516 30.2951 28.9833 30.2951 27.1908V27.145V19.9693V15.2447V8.76773V1.15681H30.2894ZM93.4191 9.13424L94.8184 13.3034H92.9585C91.7492 10.1994 89.5149 7.23867 83.6931 7.23867C76.8982 7.23867 73.5007 12.7479 73.5007 19.368C73.5007 25.9882 76.8982 31.5432 83.6931 31.5432C89.5149 31.5432 91.7492 28.5825 92.9585 25.4785H94.8184L93.4191 29.6476V31.0851H101.527V1.15681H93.4191V9.13424ZM87.177 25.0605C83.1749 25.0605 80.9406 23.3023 80.9406 19.368C80.9406 15.4337 83.1749 13.7214 87.177 13.7214C91.1791 13.7214 93.4134 15.4337 93.4134 19.368C93.4191 23.3023 91.1849 25.0605 87.177 25.0605ZM128.787 1.15681L119.585 19.9693V27.1908C119.585 29.7851 118.319 31.0793 115.583 31.0793H104.084V24.4133H112.14V19.9693L102.938 1.15681H111.04L114.933 10.8523V14.5575H116.793V10.8523L120.651 1.15681H128.787ZM7.3708 19.2191C7.3708 23.5887 9.4208 25.0662 15.4902 25.0662C20.5691 25.0662 21.1565 23.686 21.1565 22.6495C21.1565 17.9077 1.37627 18.95 1.37627 8.2065C1.37627 3.12683 5.70085 0 13.5554 0C22.1527 0 27.2835 4.09466 27.2835 10.9496H19.9127C19.9127 7.89726 17.8915 6.47128 13.5611 6.47128C11.3729 6.47128 8.75858 6.81489 8.75858 8.45848C8.75858 12.5932 28.5388 12.5474 28.5388 22.5579C28.5388 29.9798 21.335 31.5375 15.2887 31.5375C4.99832 31.5432 0 27.5115 0 19.2191H7.3708Z" fill="#212529"/>
<path d="M142.297 10.8008L140.874 13.7214H144.335V31.0794H144.329L150.376 34L158 18.3831L142.297 10.8008Z" fill="#FF5757"/>
<path d="M140.874 13.7227H138.87H126.881V31.0806H142.331H144.329L134.673 26.419L140.874 13.7227Z" fill="#80E5D6"/>
<path d="M144.335 13.7227H140.874L134.673 26.419L144.33 31.0806H144.335V13.7227Z" fill="#3B73FF"/>
</svg>
