<svg width="332" height="264" viewBox="0 0 332 264" fill="none" xmlns="http://www.w3.org/2000/svg">
<path d="M216 74C216 71.7909 217.791 70 220 70H312C314.209 70 316 71.7909 316 74V260C316 262.209 314.209 264 312 264H220C217.791 264 216 262.209 216 260V74Z" fill="#FF5757"/>
<path fill-rule="evenodd" clip-rule="evenodd" d="M291.409 216.946L292.158 216.988C292.185 216.495 292.199 216 292.199 215.501C292.199 215.002 292.185 214.506 292.158 214.014L291.409 214.056L290.661 214.097C290.686 214.562 290.699 215.03 290.699 215.501C290.699 215.972 290.686 216.44 290.661 216.905L291.409 216.946ZM291.089 211.185L291.829 211.06C291.662 210.074 291.442 209.107 291.17 208.162L290.449 208.369L289.728 208.576C289.985 209.468 290.193 210.38 290.35 211.309L291.089 211.185ZM288.897 202.68C289.375 203.544 289.807 204.437 290.188 205.357L289.496 205.644L288.803 205.932C288.443 205.064 288.036 204.222 287.585 203.407L288.241 203.044L288.897 202.68ZM286.702 200.6L287.313 200.165C286.738 199.356 286.119 198.581 285.459 197.843L284.9 198.343L284.341 198.843C284.964 199.539 285.548 200.271 286.091 201.034L286.702 200.6ZM282.858 196.3L283.357 195.741C282.619 195.081 281.844 194.462 281.035 193.887L280.601 194.498L280.166 195.109C280.929 195.652 281.661 196.236 282.358 196.859L282.858 196.3ZM278.157 192.959L278.52 192.303C277.656 191.825 276.763 191.393 275.843 191.012L275.556 191.705L275.269 192.397C276.136 192.757 276.978 193.164 277.793 193.615L278.157 192.959ZM255.843 191.705L255.555 191.012C254.636 191.393 253.742 191.825 252.879 192.303L253.242 192.959L253.605 193.615C254.42 193.164 255.263 192.757 256.13 192.397L255.843 191.705ZM250.798 194.498L250.363 193.887C249.554 194.462 248.779 195.081 248.041 195.741L248.541 196.3L249.041 196.859C249.737 196.236 250.469 195.652 251.232 195.109L250.798 194.498ZM246.498 198.343L245.939 197.843C245.279 198.581 244.66 199.356 244.085 200.165L244.696 200.6L245.308 201.034C245.85 200.271 246.435 199.539 247.058 198.843L246.498 198.343ZM243.158 203.044L242.501 202.68C242.023 203.544 241.591 204.437 241.21 205.357L241.903 205.644L242.596 205.932C242.955 205.064 243.362 204.222 243.814 203.407L243.158 203.044ZM240.949 208.369L240.229 208.162C239.957 209.107 239.736 210.074 239.57 211.06L240.309 211.185L241.049 211.309C241.206 210.38 241.414 209.468 241.67 208.576L240.949 208.369ZM239.199 215.501C239.199 215.002 239.213 214.506 239.24 214.014L239.989 214.056L240.738 214.097C240.712 214.562 240.699 215.03 240.699 215.501C240.699 215.972 240.712 216.44 240.738 216.905L239.989 216.946L239.24 216.988C239.213 216.495 239.199 216 239.199 215.501ZM240.309 219.817L239.57 219.942C239.736 220.928 239.957 221.895 240.229 222.84L240.949 222.633L241.67 222.425C241.414 221.534 241.206 220.622 241.049 219.692L240.309 219.817ZM258.567 240.251L258.36 240.971C259.305 241.243 260.273 241.464 261.258 241.63L261.383 240.891L261.508 240.151C260.578 239.994 259.666 239.786 258.775 239.53L258.567 240.251ZM264.254 241.211L264.213 241.96C264.705 241.987 265.2 242.001 265.699 242.001C266.198 242.001 266.694 241.987 267.186 241.96L267.144 241.211L267.103 240.462C266.639 240.488 266.17 240.501 265.699 240.501C265.228 240.501 264.76 240.488 264.295 240.462L264.254 241.211ZM270.016 240.891L270.14 241.63C271.126 241.464 272.093 241.243 273.038 240.971L272.831 240.251L272.624 239.53C271.732 239.786 270.82 239.994 269.891 240.151L270.016 240.891ZM290.449 222.633L291.17 222.84C291.442 221.895 291.662 220.928 291.829 219.942L291.089 219.817L290.35 219.692C290.193 220.622 289.985 221.534 289.728 222.425L290.449 222.633Z" fill="white"/>
<path fill-rule="evenodd" clip-rule="evenodd" d="M244.254 227.75C244.254 225.955 245.709 224.5 247.504 224.5C249.299 224.5 250.754 225.955 250.754 227.75C250.754 229.545 249.299 231 247.504 231C245.709 231 244.254 229.545 244.254 227.75ZM247.504 223C244.881 223 242.754 225.127 242.754 227.75C242.754 229.666 243.888 231.316 245.521 232.068C244.05 232.217 242.5 232.694 240.974 234.22C239.777 235.417 239.386 237.275 239.258 238.682C239.192 239.409 239.192 240.066 239.208 240.541C239.216 240.78 239.229 240.974 239.239 241.11C239.245 241.178 239.249 241.232 239.253 241.27L239.257 241.314L239.259 241.327L239.259 241.33L239.259 241.332L239.259 241.332C239.259 241.333 239.259 241.333 240.005 241.25L239.259 241.333C239.301 241.713 239.622 242 240.005 242H246.753H247.503H247.505H248.255H255.003C255.385 242 255.706 241.713 255.749 241.333L255.003 241.25C255.749 241.333 255.749 241.333 255.749 241.332L255.749 241.332L255.749 241.33L255.749 241.327L255.751 241.314L255.755 241.27C255.759 241.232 255.763 241.178 255.769 241.11C255.779 240.974 255.791 240.78 255.8 240.541C255.816 240.066 255.816 239.409 255.75 238.682C255.622 237.275 255.23 235.417 254.034 234.22C252.508 232.694 250.957 232.217 249.487 232.068C251.12 231.316 252.254 229.666 252.254 227.75C252.254 225.127 250.127 223 247.504 223ZM247.504 233.5C245.515 233.5 243.801 233.514 242.035 235.28C241.233 236.083 240.874 237.475 240.752 238.818C240.693 239.466 240.693 240.059 240.707 240.49L240.708 240.5H246.753H247.503H247.505H248.255H254.3L254.3 240.49C254.315 240.059 254.315 239.466 254.256 238.818C254.134 237.475 253.775 236.083 252.973 235.28C251.207 233.514 249.493 233.5 247.504 233.5Z" fill="white"/>
<path fill-rule="evenodd" clip-rule="evenodd" d="M282.254 227.75C282.254 225.955 283.709 224.5 285.504 224.5C287.299 224.5 288.754 225.955 288.754 227.75C288.754 229.545 287.299 231 285.504 231C283.709 231 282.254 229.545 282.254 227.75ZM285.504 223C282.881 223 280.754 225.127 280.754 227.75C280.754 229.666 281.888 231.316 283.521 232.068C282.05 232.217 280.5 232.694 278.974 234.22C277.777 235.417 277.386 237.275 277.258 238.682C277.192 239.409 277.192 240.066 277.208 240.541C277.216 240.78 277.229 240.974 277.239 241.11C277.245 241.178 277.249 241.232 277.253 241.27L277.257 241.314L277.259 241.327L277.259 241.33L277.259 241.332L277.259 241.332C277.259 241.333 277.259 241.333 278.005 241.25L277.259 241.333C277.301 241.713 277.622 242 278.005 242H284.753H285.503H285.505H286.255H293.003C293.385 242 293.706 241.713 293.749 241.333L293.003 241.25C293.749 241.333 293.749 241.333 293.749 241.332L293.749 241.332L293.749 241.33L293.749 241.327L293.751 241.314L293.755 241.27C293.759 241.232 293.763 241.178 293.769 241.11C293.779 240.974 293.791 240.78 293.8 240.541C293.816 240.066 293.816 239.409 293.75 238.682C293.622 237.275 293.23 235.417 292.034 234.22C290.508 232.694 288.957 232.217 287.487 232.068C289.12 231.316 290.254 229.666 290.254 227.75C290.254 225.127 288.127 223 285.504 223ZM285.504 233.5C283.515 233.5 281.801 233.514 280.035 235.28C279.233 236.083 278.874 237.475 278.752 238.818C278.693 239.466 278.693 240.059 278.707 240.49L278.708 240.5H284.753H285.503H285.505H286.255H292.3L292.3 240.49C292.315 240.059 292.315 239.466 292.256 238.818C292.134 237.475 291.775 236.083 290.973 235.28C289.207 233.514 287.493 233.5 285.504 233.5Z" fill="white"/>
<path fill-rule="evenodd" clip-rule="evenodd" d="M262.254 188.75C262.254 186.955 263.709 185.5 265.504 185.5C267.299 185.5 268.754 186.955 268.754 188.75C268.754 190.545 267.299 192 265.504 192C263.709 192 262.254 190.545 262.254 188.75ZM265.504 184C262.881 184 260.754 186.127 260.754 188.75C260.754 190.666 261.888 192.316 263.521 193.068C262.05 193.217 260.5 193.694 258.974 195.22C257.777 196.417 257.386 198.275 257.258 199.682C257.192 200.409 257.192 201.066 257.208 201.541C257.216 201.78 257.229 201.974 257.239 202.11C257.245 202.178 257.249 202.232 257.253 202.27L257.257 202.314L257.259 202.327L257.259 202.33L257.259 202.332L257.259 202.332C257.259 202.333 257.259 202.333 258.005 202.25L257.259 202.333C257.301 202.713 257.622 203 258.005 203H264.753H265.503H265.505H266.255H273.003C273.385 203 273.706 202.713 273.749 202.333L273.003 202.25C273.749 202.333 273.749 202.333 273.749 202.332L273.749 202.332L273.749 202.33L273.749 202.327L273.751 202.314L273.755 202.27C273.759 202.232 273.763 202.178 273.769 202.11C273.779 201.974 273.791 201.78 273.8 201.541C273.816 201.066 273.816 200.409 273.75 199.682C273.622 198.275 273.23 196.417 272.034 195.22C270.508 193.694 268.957 193.217 267.487 193.068C269.12 192.316 270.254 190.666 270.254 188.75C270.254 186.127 268.127 184 265.504 184ZM265.504 194.5C263.515 194.5 261.801 194.514 260.035 196.28C259.233 197.083 258.874 198.475 258.752 199.818C258.693 200.466 258.693 201.059 258.707 201.49L258.708 201.5H264.753H265.503H265.505H266.255H272.3L272.3 201.49C272.315 201.059 272.315 200.466 272.256 199.818C272.134 198.475 271.775 197.083 270.973 196.28C269.207 194.514 267.493 194.5 265.504 194.5Z" fill="white"/>
<path d="M262.972 2.82843C264.534 1.26633 267.066 1.26633 268.628 2.82843L328.772 62.9716C330.334 64.5337 330.334 67.0663 328.772 68.6284L268.628 128.772C267.066 130.334 264.534 130.334 262.972 128.772L202.828 68.6284C201.266 67.0663 201.266 64.5337 202.828 62.9716L262.972 2.82843Z" fill="white"/>
<path fill-rule="evenodd" clip-rule="evenodd" d="M265.8 7.07107L207.071 65.8L265.8 124.529L324.529 65.8L265.8 7.07107ZM268.628 2.82843C267.066 1.26633 264.534 1.26633 262.972 2.82843L202.828 62.9716C201.266 64.5337 201.266 67.0663 202.828 68.6284L262.972 128.772C264.534 130.334 267.066 130.334 268.628 128.772L328.772 68.6284C330.334 67.0663 330.334 64.5337 328.772 62.9716L268.628 2.82843Z" fill="#FF5757"/>
<path d="M250.913 62.8804C250.913 71.1204 256.353 77.4004 265.313 77.4004C274.233 77.4004 279.673 71.1204 279.673 62.8804C279.673 54.6804 274.233 48.4004 265.313 48.4004C256.353 48.4004 250.913 54.6804 250.913 62.8804ZM257.313 62.8804C257.313 57.4804 259.993 54.0004 265.313 54.0004C270.633 54.0004 273.273 57.4804 273.273 62.8804C273.273 68.3204 270.633 71.8004 265.313 71.8004C259.993 71.8004 257.313 68.3204 257.313 62.8804Z" fill="black"/>
<path d="M220.522 162.058C220.522 164.942 222.426 167.14 225.562 167.14C228.684 167.14 230.588 164.942 230.588 162.058C230.588 159.188 228.684 156.99 225.562 156.99C222.426 156.99 220.522 159.188 220.522 162.058ZM222.762 162.058C222.762 160.168 223.7 158.95 225.562 158.95C227.424 158.95 228.348 160.168 228.348 162.058C228.348 163.962 227.424 165.18 225.562 165.18C223.7 165.18 222.762 163.962 222.762 162.058Z" fill="white"/>
<path d="M235.265 165.18C234.187 165.18 233.809 164.69 233.809 163.402V159.93H231.569V163.752C231.569 165.936 232.661 167.14 234.467 167.14C235.979 167.14 236.861 166.146 237.141 164.886H237.701L237.281 166.146V167H239.521V159.93H237.281V162.548C237.281 164.536 236.483 165.18 235.265 165.18Z" fill="white"/>
<path d="M244.281 165.18V161.89H246.605V159.93H244.281V157.9L242.041 158.6V159.93H240.361V161.89H242.041V165.95C242.041 166.72 242.461 167.168 243.231 167.14L246.885 167V165.04L244.281 165.18Z" fill="white"/>
<path d="M254.6 165.054C254.6 163.584 253.34 163.234 251.968 162.786C250.848 162.422 250.148 162.212 250.148 161.876C250.148 161.596 250.442 161.47 250.974 161.47C251.744 161.47 252.122 161.848 252.122 162.352H254.362C254.362 160.98 253.382 159.79 250.988 159.79C249.042 159.79 247.908 160.518 247.908 161.778C247.908 163.36 249.518 163.71 250.834 164.144C251.968 164.522 252.36 164.62 252.36 164.984C252.36 165.32 251.982 165.46 251.38 165.46C250.204 165.46 249.826 164.984 249.826 164.438H247.586C247.586 166.09 248.706 167.14 251.31 167.14C253.746 167.14 254.6 166.244 254.6 165.054Z" fill="white"/>
<path d="M255.3 163.458C255.3 165.936 257.064 167.14 259.29 167.14C261.502 167.14 263.266 165.936 263.266 163.458C263.266 160.994 261.502 159.79 259.29 159.79C257.064 159.79 255.3 160.994 255.3 163.458ZM257.54 163.458C257.54 162.282 258.226 161.75 259.29 161.75C260.34 161.75 261.026 162.282 261.026 163.458C261.026 164.648 260.34 165.18 259.29 165.18C258.226 165.18 257.54 164.648 257.54 163.458Z" fill="white"/>
<path d="M267.804 165.18C266.726 165.18 266.348 164.69 266.348 163.402V159.93H264.108V163.752C264.108 165.936 265.2 167.14 267.006 167.14C268.518 167.14 269.4 166.146 269.68 164.886H270.24L269.82 166.146V167H272.06V159.93H269.82V162.548C269.82 164.536 269.022 165.18 267.804 165.18Z" fill="white"/>
<path d="M273.176 167H275.416V161.806L279.014 161.89V159.93L274.38 159.818C273.61 159.804 273.176 160.224 273.176 160.994V167Z" fill="white"/>
<path d="M279.582 163.458C279.582 165.824 281.192 167.14 283.446 167.14C285.378 167.14 287.142 166.09 287.24 164.074H285C284.916 164.704 284.342 165.18 283.446 165.18C282.382 165.18 281.822 164.55 281.822 163.458C281.822 162.38 282.382 161.75 283.446 161.75C284.342 161.75 284.916 162.226 285 162.856H287.24C287.142 160.84 285.378 159.79 283.446 159.79C281.192 159.79 279.582 161.106 279.582 163.458Z" fill="white"/>
<path d="M290.696 159.23C291.522 159.23 292.04 158.838 292.04 158.11C292.04 157.396 291.522 156.99 290.696 156.99C289.87 156.99 289.38 157.396 289.38 158.11C289.38 158.838 289.87 159.23 290.696 159.23ZM287.798 167H293.958V165.04H291.956V160.966C291.956 160.182 291.522 159.748 290.738 159.79L288.078 159.93V161.89L289.8 161.806V165.04H287.798V167Z" fill="white"/>
<path d="M299.061 161.75C300.139 161.75 300.517 162.24 300.517 163.528V167H302.757V163.178C302.757 160.994 301.665 159.79 299.859 159.79C298.347 159.79 297.465 160.784 297.185 162.044H296.625L297.045 160.784V159.93H294.805V167H297.045V164.382C297.045 162.394 297.843 161.75 299.061 161.75Z" fill="white"/>
<path d="M312.021 159.93C311.391 159.93 310.663 160 310.243 160.546C309.501 160 308.521 159.79 307.443 159.79C305.217 159.79 303.453 160.686 303.453 162.548C303.453 164.872 306.183 165.25 308.773 164.326V164.886C307.485 165.194 306.029 165.362 304.419 165.53L304.657 166.79C306.827 166.426 309.361 165.964 309.361 167C309.361 167.77 308.493 167.84 303.915 167.84V169.8C309.165 169.8 311.615 169.562 311.615 167.476C311.615 165.978 310.117 165.558 308.507 165.656C310.453 164.998 311.699 164.158 311.699 162.828C311.699 162.45 311.587 162.128 311.503 162.016C311.699 161.89 311.951 161.89 312.161 161.89H312.637V159.93H312.021ZM307.583 163.626C306.239 163.626 305.693 163.29 305.693 162.688C305.693 162.1 306.239 161.75 307.583 161.75C308.927 161.75 309.459 162.1 309.459 162.688C309.459 163.29 308.927 163.626 307.583 163.626Z" fill="white"/>
<path d="M116 70C116 67.7909 117.791 66 120 66H212C214.209 66 216 67.7909 216 70V260C216 262.209 214.209 264 212 264H120C117.791 264 116 262.209 116 260V70Z" fill="#3B73FF"/>
<path fill-rule="evenodd" clip-rule="evenodd" d="M169.15 200C169.15 199.586 169.486 199.25 169.9 199.25H175.1C175.514 199.25 175.85 199.586 175.85 200V203.392L181.419 205.62L183.669 203.37C183.951 203.088 184.405 203.076 184.701 203.343L189.035 207.243C189.188 207.38 189.277 207.575 189.283 207.78C189.288 207.986 189.209 208.185 189.063 208.33L186.389 211.005L188.594 216.15H192C192.414 216.15 192.75 216.486 192.75 216.9V222.1C192.75 222.514 192.414 222.85 192 222.85H188.608L186.38 228.419L188.63 230.67C188.923 230.963 188.923 231.437 188.63 231.73L184.73 235.63C184.437 235.923 183.962 235.923 183.669 235.63L181.419 233.38L175.85 235.608V239C175.85 239.414 175.514 239.75 175.1 239.75H169.9C169.486 239.75 169.15 239.414 169.15 239V235.608L163.58 233.38L161.33 235.63C161.037 235.923 160.562 235.923 160.269 235.63L156.369 231.73C156.077 231.437 156.077 230.963 156.369 230.67L158.62 228.419L156.392 222.85H153C152.586 222.85 152.25 222.514 152.25 222.1V216.9C152.25 216.486 152.586 216.15 153 216.15H156.392L158.62 210.581L156.369 208.33C156.077 208.037 156.077 207.563 156.369 207.27L160.269 203.37C160.562 203.077 161.037 203.077 161.33 203.37L163.58 205.62L166.371 204.504L166.65 205.2L166.928 205.896L163.678 207.196C163.4 207.308 163.082 207.242 162.869 207.03L160.8 204.961L157.96 207.8L160.03 209.87C160.242 210.082 160.308 210.4 160.196 210.679L157.596 217.179C157.482 217.463 157.206 217.65 156.9 217.65H153.75V221.35H156.9C157.206 221.35 157.482 221.537 157.596 221.821L160.196 228.321C160.308 228.6 160.242 228.918 160.03 229.13L157.96 231.2L160.8 234.039L162.869 231.97C163.082 231.758 163.4 231.692 163.678 231.804L170.178 234.404C170.463 234.518 170.65 234.793 170.65 235.1V238.25H174.35V235.1C174.35 234.793 174.536 234.518 174.821 234.404L181.321 231.804C181.6 231.692 181.918 231.758 182.13 231.97L184.2 234.039L187.039 231.2L184.969 229.13C184.757 228.918 184.692 228.6 184.803 228.321L187.403 221.821C187.517 221.537 187.793 221.35 188.1 221.35H191.25V217.65H188.1C187.8 217.65 187.529 217.471 187.41 217.195L184.81 211.129C184.69 210.847 184.753 210.52 184.969 210.303L187.444 207.829L184.227 204.933L182.13 207.03C181.918 207.242 181.6 207.308 181.321 207.196L174.821 204.596C174.536 204.482 174.35 204.207 174.35 203.9V200.75H170.65V203.9C170.65 204.207 170.463 204.482 170.178 204.596L166.928 205.896L166.65 205.2L166.371 204.504L169.15 203.392V200Z" fill="white"/>
<path fill-rule="evenodd" clip-rule="evenodd" d="M173 223.5C175.485 223.5 177.5 221.485 177.5 219C177.5 216.515 175.485 214.5 173 214.5C170.514 214.5 168.5 216.515 168.5 219C168.5 221.485 170.514 223.5 173 223.5ZM173 225C176.313 225 179 222.314 179 219C179 215.686 176.313 213 173 213C169.686 213 167 215.686 167 219C167 222.314 169.686 225 173 225Z" fill="white"/>
<path fill-rule="evenodd" clip-rule="evenodd" d="M173 210.75C168.443 210.75 164.75 214.444 164.75 219C164.75 219.583 164.818 220.152 164.946 220.701C165.039 221.105 164.788 221.508 164.385 221.601C163.981 221.695 163.578 221.444 163.484 221.041C163.332 220.383 163.25 219.7 163.25 219C163.25 213.615 167.615 209.25 173 209.25C178.385 209.25 182.75 213.615 182.75 219C182.75 224.402 178.369 228.608 173.02 228.75C172.606 228.761 172.261 228.434 172.25 228.02C172.239 227.606 172.566 227.261 172.98 227.25C177.568 227.129 181.25 223.539 181.25 219C181.25 214.444 177.556 210.75 173 210.75Z" fill="white"/>
<path fill-rule="evenodd" clip-rule="evenodd" d="M159.25 202.5C159.25 200.429 157.571 198.75 155.5 198.75C155.238 198.75 154.982 198.781 154.734 198.838C154.331 198.932 153.928 198.681 153.834 198.277C153.74 197.874 153.991 197.471 154.395 197.377C154.75 197.294 155.12 197.25 155.5 197.25C158.399 197.25 160.75 199.601 160.75 202.5C160.75 205.399 158.399 207.75 155.5 207.75C152.583 207.75 150.326 205.385 150.25 202.52C150.239 202.106 150.566 201.761 150.98 201.75C151.394 201.739 151.739 202.066 151.749 202.48C151.805 204.584 153.446 206.25 155.5 206.25C157.571 206.25 159.25 204.571 159.25 202.5Z" fill="white"/>
<path fill-rule="evenodd" clip-rule="evenodd" d="M152.728 187C152.728 186.586 153.064 186.25 153.478 186.25H158.261C158.675 186.25 159.011 186.586 159.011 187V189.953L162.904 191.369L164.749 189.893C165.034 189.665 165.442 189.675 165.715 189.917L168.758 192.617C169.065 192.889 169.096 193.357 168.828 193.668L166.968 195.822L168.744 199.728H170C170.414 199.728 170.75 200.064 170.75 200.478C170.75 200.893 170.414 201.228 170 201.228H168.261C167.967 201.228 167.7 201.056 167.578 200.789L165.404 196.006C165.283 195.74 165.328 195.427 165.519 195.206L167.209 193.248L165.192 191.459L163.512 192.803C163.307 192.966 163.033 193.012 162.787 192.922L158.004 191.183C157.708 191.075 157.511 190.794 157.511 190.478V187.75H154.228V190.478C154.228 190.794 154.031 191.075 153.734 191.183L148.952 192.922C148.701 193.013 148.42 192.964 148.215 192.794L146.141 191.065L144.107 193.158L145.736 194.719C145.96 194.934 146.029 195.263 145.909 195.549L143.736 200.767C143.619 201.046 143.346 201.228 143.043 201.228H140.75V204.076H143.043C143.346 204.076 143.619 204.258 143.736 204.538L145.909 209.755C146.026 210.036 145.962 210.359 145.747 210.574L144.104 212.217L146.087 214.2L147.73 212.557C147.945 212.342 148.269 212.278 148.549 212.395L153.766 214.569C154.046 214.685 154.228 214.958 154.228 215.261V217C154.228 217.414 153.892 217.75 153.478 217.75C153.064 217.75 152.728 217.414 152.728 217V215.761L148.436 213.972L146.617 215.791C146.324 216.084 145.849 216.084 145.556 215.791L142.513 212.748C142.22 212.455 142.22 211.98 142.513 211.687L144.332 209.868L142.543 205.576H140C139.586 205.576 139.25 205.24 139.25 204.826V200.478C139.25 200.064 139.586 199.728 140 199.728H142.543L144.327 195.447L142.524 193.719C142.38 193.581 142.297 193.391 142.293 193.191C142.29 192.991 142.366 192.798 142.505 192.655L145.549 189.521C145.822 189.24 146.266 189.216 146.567 189.467L148.844 191.365L152.728 189.953V187Z" fill="white"/>
<path d="M163.172 2.82843C164.734 1.26633 167.266 1.26633 168.828 2.82843L228.972 62.9716C230.534 64.5337 230.534 67.0663 228.972 68.6284L168.828 128.772C167.266 130.334 164.734 130.334 163.172 128.772L103.028 68.6284C101.466 67.0663 101.466 64.5337 103.028 62.9716L163.172 2.82843Z" fill="white"/>
<path fill-rule="evenodd" clip-rule="evenodd" d="M166 7.07107L107.271 65.8L166 124.529L224.729 65.8L166 7.07107ZM168.828 2.82843C167.266 1.26633 164.734 1.26633 163.172 2.82843L103.028 62.9716C101.466 64.5337 101.466 67.0663 103.028 68.6284L163.172 128.772C164.734 130.334 167.266 130.334 168.828 128.772L228.972 68.6284C230.534 67.0663 230.534 64.5337 228.972 62.9716L168.828 2.82843Z" fill="#3B73FF"/>
<path d="M164.68 48.8008H154.56V77.0008H160.96V68.6008H164.68C171.8 68.6008 177.24 67.2408 177.24 58.6808C177.24 50.1608 171.8 48.8008 164.68 48.8008ZM165.08 63.0008H160.96V54.4008H165.08C168.88 54.4008 170.84 54.8008 170.84 58.6808C170.84 62.6008 168.88 63.0008 165.08 63.0008Z" fill="black"/>
<path d="M142.725 157.131H139.183V167.001H141.423V164.061H142.725C145.217 164.061 147.121 163.585 147.121 160.589C147.121 157.607 145.217 157.131 142.725 157.131ZM142.865 162.101H141.423V159.091H142.865C144.195 159.091 144.881 159.231 144.881 160.589C144.881 161.961 144.195 162.101 142.865 162.101Z" fill="white"/>
<path d="M148.097 167.001H150.337V161.807L153.935 161.891V159.931L149.301 159.819C148.531 159.805 148.097 160.225 148.097 160.995V167.001Z" fill="white"/>
<path d="M154.502 163.459C154.502 165.937 156.266 167.141 158.492 167.141C160.704 167.141 162.468 165.937 162.468 163.459C162.468 160.995 160.704 159.791 158.492 159.791C156.266 159.791 154.502 160.995 154.502 163.459ZM156.742 163.459C156.742 162.283 157.428 161.751 158.492 161.751C159.542 161.751 160.228 162.283 160.228 163.459C160.228 164.649 159.542 165.181 158.492 165.181C157.428 165.181 156.742 164.649 156.742 163.459Z" fill="white"/>
<path d="M163.17 163.459C163.17 165.825 164.78 167.141 167.034 167.141C168.966 167.141 170.73 166.091 170.828 164.075H168.588C168.504 164.705 167.93 165.181 167.034 165.181C165.97 165.181 165.41 164.551 165.41 163.459C165.41 162.381 165.97 161.751 167.034 161.751C167.93 161.751 168.504 162.227 168.588 162.857H170.828C170.73 160.841 168.966 159.791 167.034 159.791C164.78 159.791 163.17 161.107 163.17 163.459Z" fill="white"/>
<path d="M171.524 163.375C171.524 165.377 172.77 167.141 175.486 167.141C177.936 167.141 179.098 165.531 179.238 164.509H176.998C176.858 165.041 176.27 165.321 175.486 165.321C174.212 165.321 173.624 164.747 173.624 163.935H178.986V163.235C178.986 161.093 177.446 159.791 175.248 159.791C173.05 159.791 171.524 161.135 171.524 163.375ZM173.624 162.675C173.624 162.143 174.002 161.611 175.248 161.611C176.494 161.611 176.886 162.143 176.886 162.675H173.624Z" fill="white"/>
<path d="M186.806 165.055C186.806 163.585 185.546 163.235 184.174 162.787C183.054 162.423 182.354 162.213 182.354 161.877C182.354 161.597 182.648 161.471 183.18 161.471C183.95 161.471 184.328 161.849 184.328 162.353H186.568C186.568 160.981 185.588 159.791 183.194 159.791C181.248 159.791 180.114 160.519 180.114 161.779C180.114 163.361 181.724 163.711 183.04 164.145C184.174 164.523 184.566 164.621 184.566 164.985C184.566 165.321 184.188 165.461 183.586 165.461C182.41 165.461 182.032 164.985 182.032 164.439H179.792C179.792 166.091 180.912 167.141 183.516 167.141C185.952 167.141 186.806 166.245 186.806 165.055Z" fill="white"/>
<path d="M194.38 165.055C194.38 163.585 193.12 163.235 191.748 162.787C190.628 162.423 189.928 162.213 189.928 161.877C189.928 161.597 190.222 161.471 190.754 161.471C191.524 161.471 191.902 161.849 191.902 162.353H194.142C194.142 160.981 193.162 159.791 190.768 159.791C188.822 159.791 187.688 160.519 187.688 161.779C187.688 163.361 189.298 163.711 190.614 164.145C191.748 164.523 192.14 164.621 192.14 164.985C192.14 165.321 191.762 165.461 191.16 165.461C189.984 165.461 189.606 164.985 189.606 164.439H187.366C187.366 166.091 188.486 167.141 191.09 167.141C193.526 167.141 194.38 166.245 194.38 165.055Z" fill="white"/>
<path d="M16.0002 70C16.0002 67.7909 17.7911 66 20.0002 66H112C114.209 66 116 67.7909 116 70V260C116 262.209 114.209 264 112 264H20.0002C17.7911 264 16.0002 262.209 16.0002 260V70Z" fill="#70DBCB"/>
<path d="M62.9716 2.82843C64.5337 1.26633 67.0664 1.26633 68.6285 2.82843L128.772 62.9716C130.334 64.5337 130.334 67.0663 128.772 68.6284L68.6285 128.772C67.0664 130.334 64.5337 130.334 62.9716 128.772L2.8285 68.6284C1.2664 67.0663 1.2664 64.5337 2.82849 62.9716L62.9716 2.82843Z" fill="white"/>
<path fill-rule="evenodd" clip-rule="evenodd" d="M65.8 7.07107L7.07113 65.8L65.8 124.529L124.529 65.8L65.8 7.07107ZM68.6285 2.82843C67.0664 1.26633 64.5337 1.26633 62.9716 2.82843L2.82849 62.9716C1.2664 64.5337 1.2664 67.0663 2.8285 68.6284L62.9716 128.772C64.5337 130.334 67.0664 130.334 68.6285 128.772L128.772 68.6284C130.334 67.0663 130.334 64.5337 128.772 62.9716L68.6285 2.82843Z" fill="#70DBCB"/>
<path d="M53.5837 77.0008H59.9837V67.0808H71.0237V77.0008H77.4237V68.0008C77.4237 65.8008 76.2237 64.6008 74.0237 64.6008H69.9037V63.0008C73.3037 62.6008 77.0637 61.3208 77.0637 56.6808C77.0637 50.3608 71.2237 48.8008 64.5037 48.8008H53.5837V77.0008ZM59.9837 61.4808V54.4008H64.5037C68.3037 54.4008 70.6637 54.4008 70.6637 57.9608C70.6637 61.4808 68.3037 61.4808 64.5037 61.4808H59.9837Z" fill="black"/>
<path d="M20.9788 167H23.2188V163.528H27.0828V167H29.3228V163.85C29.3228 163.08 28.9028 162.66 28.1328 162.66H26.6908V162.1C27.8808 161.96 29.1968 161.512 29.1968 159.888C29.1968 157.676 27.1528 157.13 24.8008 157.13H20.9788V167ZM23.2188 161.568V159.09H24.8008C26.1308 159.09 26.9568 159.09 26.9568 160.336C26.9568 161.568 26.1308 161.568 24.8008 161.568H23.2188Z" fill="white"/>
<path d="M30.1597 163.374C30.1597 165.376 31.4057 167.14 34.1217 167.14C36.5717 167.14 37.7337 165.53 37.8737 164.508H35.6337C35.4937 165.04 34.9057 165.32 34.1217 165.32C32.8477 165.32 32.2597 164.746 32.2597 163.934H37.6217V163.234C37.6217 161.092 36.0817 159.79 33.8837 159.79C31.6857 159.79 30.1597 161.134 30.1597 163.374ZM32.2597 162.674C32.2597 162.142 32.6377 161.61 33.8837 161.61C35.1297 161.61 35.5217 162.142 35.5217 162.674H32.2597Z" fill="white"/>
<path d="M38.5679 163.458C38.5679 165.824 40.1779 167.14 42.4319 167.14C44.3639 167.14 46.1279 166.09 46.2259 164.074H43.9859C43.9019 164.704 43.3279 165.18 42.4319 165.18C41.3679 165.18 40.8079 164.55 40.8079 163.458C40.8079 162.38 41.3679 161.75 42.4319 161.75C43.3279 161.75 43.9019 162.226 43.9859 162.856H46.2259C46.1279 160.84 44.3639 159.79 42.4319 159.79C40.1779 159.79 38.5679 161.106 38.5679 163.458Z" fill="white"/>
<path d="M47.2014 167H49.4414V161.806L53.0394 161.89V159.93L48.4054 159.818C47.6354 159.804 47.2014 160.224 47.2014 160.994V167Z" fill="white"/>
<path d="M57.5797 165.18C56.5017 165.18 56.1237 164.69 56.1237 163.402V159.93H53.8837V163.752C53.8837 165.936 54.9757 167.14 56.7817 167.14C58.2937 167.14 59.1757 166.146 59.4557 164.886H60.0157L59.5957 166.146V167H61.8357V159.93H59.5957V162.548C59.5957 164.536 58.7977 165.18 57.5797 165.18Z" fill="white"/>
<path d="M65.7198 159.23C66.5458 159.23 67.0638 158.838 67.0638 158.11C67.0638 157.396 66.5458 156.99 65.7198 156.99C64.8938 156.99 64.4038 157.396 64.4038 158.11C64.4038 158.838 64.8938 159.23 65.7198 159.23ZM62.8218 167H68.9818V165.04H66.9798V160.966C66.9798 160.182 66.5458 159.748 65.7618 159.79L63.1018 159.93V161.89L64.8238 161.806V165.04H62.8218V167Z" fill="white"/>
<path d="M72.3374 165.18V161.89H74.6614V159.93H72.3374V157.9L70.0974 158.6V159.93H68.4174V161.89H70.0974V165.95C70.0974 166.72 70.5174 167.168 71.2874 167.14L74.9414 167V165.04L72.3374 165.18Z" fill="white"/>
<path d="M85.39 159.79C84.018 159.79 83.388 160.644 83.108 161.904H82.702C82.492 160.672 81.932 159.79 80.602 159.79C79.23 159.79 78.586 160.644 78.306 161.904H77.746L78.166 160.644V159.93H75.926V167H78.166V164.522C78.166 162.814 78.446 161.75 79.664 161.75C80.49 161.75 80.714 162.128 80.714 163.472V167H82.954V164.522C82.954 162.814 83.234 161.75 84.452 161.75C85.278 161.75 85.502 162.128 85.502 163.472V167H87.742V163.318C87.742 161.414 87.196 159.79 85.39 159.79Z" fill="white"/>
<path d="M88.5796 163.374C88.5796 165.376 89.8256 167.14 92.5416 167.14C94.9916 167.14 96.1536 165.53 96.2936 164.508H94.0536C93.9136 165.04 93.3256 165.32 92.5416 165.32C91.2676 165.32 90.6796 164.746 90.6796 163.934H96.0416V163.234C96.0416 161.092 94.5016 159.79 92.3036 159.79C90.1056 159.79 88.5796 161.134 88.5796 163.374ZM90.6796 162.674C90.6796 162.142 91.0576 161.61 92.3036 161.61C93.5496 161.61 93.9416 162.142 93.9416 162.674H90.6796Z" fill="white"/>
<path d="M101.524 161.75C102.602 161.75 102.98 162.24 102.98 163.528V167H105.22V163.178C105.22 160.994 104.128 159.79 102.322 159.79C100.81 159.79 99.9278 160.784 99.6478 162.044H99.0878L99.5078 160.784V159.93H97.2678V167H99.5078V164.382C99.5078 162.394 100.306 161.75 101.524 161.75Z" fill="white"/>
<path d="M109.839 165.18V161.89H112.163V159.93H109.839V157.9L107.599 158.6V159.93H105.919V161.89H107.599V165.95C107.599 166.72 108.019 167.168 108.789 167.14L112.443 167V165.04L109.839 165.18Z" fill="white"/>
<g clip-path="url(#clip0_6678_23773)">
<path fill-rule="evenodd" clip-rule="evenodd" d="M65 208.75C57.6822 208.75 51.75 214.682 51.75 222C51.75 229.318 57.6822 235.25 65 235.25C69.7056 235.25 73.8389 232.798 76.1907 229.098C77.4947 227.046 78.25 224.613 78.25 222C78.25 214.682 72.3178 208.75 65 208.75ZM50.25 222C50.25 213.854 56.8538 207.25 65 207.25C73.1462 207.25 79.75 213.854 79.75 222C79.75 224.667 79.0415 227.171 77.8022 229.33L80.9742 231.919C81.2951 232.181 81.343 232.653 81.0811 232.974C80.8192 233.295 80.3467 233.343 80.0258 233.081L76.985 230.6C74.3087 234.323 69.938 236.75 65 236.75C56.8538 236.75 50.25 230.146 50.25 222Z" fill="white"/>
<path fill-rule="evenodd" clip-rule="evenodd" d="M80.1015 232.015C80.9469 230.878 82.5535 230.642 83.6899 231.488L93.0552 238.456C94.1916 239.301 94.4274 240.908 93.5819 242.044C92.7365 243.18 91.1299 243.416 89.9935 242.571L80.6282 235.603C79.4919 234.758 79.256 233.151 80.1015 232.015ZM82.7945 232.691C82.3228 232.34 81.6559 232.438 81.305 232.91C80.954 233.382 81.0519 234.049 81.5236 234.4L90.8889 241.367C91.3606 241.718 92.0275 241.62 92.3785 241.149C92.7294 240.677 92.6315 240.01 92.1598 239.659L82.7945 232.691Z" fill="white"/>
<path fill-rule="evenodd" clip-rule="evenodd" d="M80.75 191C80.75 189.205 82.2051 187.75 84 187.75C85.7949 187.75 87.25 189.205 87.25 191C87.25 192.795 85.7949 194.25 84 194.25C82.2051 194.25 80.75 192.795 80.75 191ZM84 186.25C81.3766 186.25 79.25 188.377 79.25 191C79.25 192.916 80.384 194.566 82.0174 195.318C80.5464 195.467 78.9958 195.944 77.4703 197.47C76.2734 198.667 75.8821 200.525 75.7541 201.932C75.688 202.659 75.688 203.316 75.7044 203.791C75.7126 204.03 75.7249 204.224 75.7354 204.36C75.7406 204.428 75.7454 204.482 75.7489 204.52L75.7533 204.564L75.7546 204.577L75.755 204.58L75.7552 204.582L75.7552 204.582C75.7553 204.583 75.7553 204.583 76.5007 204.5L75.7553 204.583C75.7974 204.963 76.1185 205.25 76.5007 205.25H83.2493H83.9993H84.0007H84.7507H91.4993C91.8815 205.25 92.2026 204.963 92.2447 204.583L91.4993 204.5C92.2447 204.583 92.2447 204.583 92.2448 204.582L92.2448 204.582L92.245 204.58L92.2454 204.577L92.2467 204.564L92.2511 204.52C92.2546 204.482 92.2594 204.428 92.2646 204.36C92.2751 204.224 92.2874 204.03 92.2956 203.791C92.312 203.316 92.312 202.659 92.2459 201.932C92.1179 200.525 91.7266 198.667 90.5297 197.47C89.0042 195.944 87.4536 195.467 85.9826 195.318C87.616 194.566 88.75 192.916 88.75 191C88.75 188.377 86.6234 186.25 84 186.25ZM84 196.75C82.0107 196.75 80.297 196.764 78.5311 198.53C77.7287 199.333 77.3701 200.725 77.2479 202.068C77.1889 202.716 77.1887 203.309 77.2035 203.74L77.2038 203.75H83.2493H83.9993H84.0007H84.7507H90.7962L90.7965 203.74C90.8113 203.309 90.8111 202.716 90.7521 202.068C90.6299 200.725 90.2713 199.333 89.4689 198.53C87.703 196.764 85.9893 196.75 84 196.75Z" fill="white"/>
<path fill-rule="evenodd" clip-rule="evenodd" d="M62.0547 191C62.0547 189.205 63.5098 187.75 65.3047 187.75C67.0996 187.75 68.5547 189.205 68.5547 191C68.5547 192.795 67.0996 194.25 65.3047 194.25C63.5098 194.25 62.0547 192.795 62.0547 191ZM65.3047 186.25C62.6813 186.25 60.5547 188.377 60.5547 191C60.5547 192.916 61.6887 194.566 63.3221 195.318C61.8511 195.467 60.3005 195.944 58.775 197.47C57.5781 198.667 57.1867 200.525 57.0587 201.932C56.9927 202.659 56.9927 203.316 57.0091 203.791C57.0173 204.03 57.0296 204.224 57.0401 204.36C57.0453 204.428 57.0501 204.482 57.0536 204.52L57.058 204.564L57.0593 204.577L57.0597 204.58L57.0599 204.582L57.0599 204.582C57.06 204.583 57.06 204.583 57.8054 204.5L57.06 204.583C57.1021 204.963 57.4232 205.25 57.8054 205.25H64.554H65.304H65.3054H66.0554H72.804C73.1862 205.25 73.5072 204.963 73.5494 204.583L72.804 204.5C73.5494 204.583 73.5494 204.583 73.5494 204.582L73.5495 204.582L73.5496 204.58L73.5501 204.577L73.5514 204.564L73.5557 204.52C73.5593 204.482 73.5641 204.428 73.5693 204.36C73.5798 204.224 73.5921 204.03 73.6003 203.791C73.6166 203.316 73.6167 202.659 73.5506 201.932C73.4226 200.525 73.0312 198.667 71.8344 197.47C70.3088 195.944 68.7583 195.467 67.2873 195.318C68.9207 194.566 70.0547 192.916 70.0547 191C70.0547 188.377 67.928 186.25 65.3047 186.25ZM65.3047 196.75C63.3153 196.75 61.6017 196.764 59.8358 198.53C59.0334 199.333 58.6747 200.725 58.5526 202.068C58.4936 202.716 58.4934 203.309 58.5082 203.74L58.5085 203.75H64.554H65.304H65.3054H66.0554H72.1008L72.1012 203.74C72.116 203.309 72.1158 202.716 72.0568 202.068C71.9346 200.725 71.576 199.333 70.7736 198.53C69.0077 196.764 67.294 196.75 65.3047 196.75Z" fill="white"/>
<path fill-rule="evenodd" clip-rule="evenodd" d="M61.5547 216.75C61.5547 214.955 63.0098 213.5 64.8047 213.5C66.5996 213.5 68.0547 214.955 68.0547 216.75C68.0547 218.545 66.5996 220 64.8047 220C63.0098 220 61.5547 218.545 61.5547 216.75ZM64.8047 212C62.1813 212 60.0547 214.127 60.0547 216.75C60.0547 218.666 61.1887 220.316 62.8221 221.068C61.3511 221.217 59.8005 221.694 58.275 223.22C57.0781 224.417 56.6867 226.275 56.5587 227.682C56.4927 228.409 56.4927 229.066 56.5091 229.541C56.5173 229.78 56.5296 229.974 56.5401 230.11C56.5453 230.178 56.5501 230.232 56.5536 230.27L56.558 230.314L56.5593 230.327L56.5597 230.33L56.5599 230.332L56.5599 230.332C56.56 230.333 56.56 230.333 57.3054 230.25L56.56 230.333C56.6021 230.713 56.9232 231 57.3054 231H64.054H64.804H64.8054H65.5554H72.304C72.6862 231 73.0072 230.713 73.0494 230.333L72.304 230.25C73.0494 230.333 73.0494 230.333 73.0494 230.332L73.0495 230.332L73.0496 230.33L73.0501 230.327L73.0514 230.314L73.0557 230.27C73.0593 230.232 73.0641 230.178 73.0693 230.11C73.0798 229.974 73.0921 229.78 73.1003 229.541C73.1166 229.066 73.1167 228.409 73.0506 227.682C72.9226 226.275 72.5312 224.417 71.3344 223.22C69.8088 221.694 68.2583 221.217 66.7873 221.068C68.4207 220.316 69.5547 218.666 69.5547 216.75C69.5547 214.127 67.428 212 64.8047 212ZM64.8047 222.5C62.8153 222.5 61.1017 222.514 59.3358 224.28C58.5334 225.083 58.1747 226.475 58.0526 227.818C57.9936 228.466 57.9934 229.059 58.0082 229.49L58.0085 229.5H64.054H64.804H64.8054H65.5554H71.6008L71.6012 229.49C71.616 229.059 71.6158 228.466 71.5568 227.818C71.4346 226.475 71.076 225.083 70.2736 224.28C68.5077 222.514 66.794 222.5 64.8047 222.5Z" fill="white"/>
<path fill-rule="evenodd" clip-rule="evenodd" d="M43.3594 191C43.3594 189.205 44.8144 187.75 46.6094 187.75C48.4043 187.75 49.8594 189.205 49.8594 191C49.8594 192.795 48.4043 194.25 46.6094 194.25C44.8144 194.25 43.3594 192.795 43.3594 191ZM46.6094 186.25C43.986 186.25 41.8594 188.377 41.8594 191C41.8594 192.916 42.9934 194.566 44.6268 195.318C43.1558 195.467 41.6052 195.944 40.0797 197.47C38.8828 198.667 38.4914 200.525 38.3634 201.932C38.2973 202.659 38.2974 203.316 38.3138 203.791C38.3219 204.03 38.3343 204.224 38.3447 204.36C38.35 204.428 38.3547 204.482 38.3583 204.52L38.3627 204.564L38.364 204.577L38.3644 204.58L38.3646 204.582L38.3646 204.582C38.3646 204.583 38.3647 204.583 39.1101 204.5L38.3647 204.583C38.4068 204.963 38.7279 205.25 39.1101 205.25H45.8587H46.6087H46.6101H47.3601H54.1087C54.4909 205.25 54.8119 204.963 54.8541 204.583L54.1087 204.5C54.8541 204.583 54.8541 204.583 54.8541 204.582L54.8542 204.582L54.8543 204.58L54.8548 204.577L54.8561 204.564L54.8604 204.52C54.864 204.482 54.8688 204.428 54.874 204.36C54.8845 204.224 54.8968 204.03 54.905 203.791C54.9213 203.316 54.9214 202.659 54.8553 201.932C54.7273 200.525 54.3359 198.667 53.1391 197.47C51.6135 195.944 50.063 195.467 48.592 195.318C50.2254 194.566 51.3594 192.916 51.3594 191C51.3594 188.377 49.2327 186.25 46.6094 186.25ZM46.6094 196.75C44.62 196.75 42.9064 196.764 41.1405 198.53C40.338 199.333 39.9794 200.725 39.8573 202.068C39.7983 202.716 39.7981 203.309 39.8129 203.74L39.8132 203.75H45.8587H46.6087H46.6101H47.3601H53.4055L53.4059 203.74C53.4207 203.309 53.4205 202.716 53.3615 202.068C53.2393 200.725 52.8807 199.333 52.0782 198.53C50.3124 196.764 48.5987 196.75 46.6094 196.75Z" fill="white"/>
</g>
<defs>
<clipPath id="clip0_6678_23773">
<rect x="35" y="182" width="62" height="62" rx="4" fill="white"/>
</clipPath>
</defs>
</svg>
